name C:\Users\u0101727\Documents\MyRepositories\upper-imu-dc\Results\main_tracking\Case_31\FLX01_angularVelocities_groundFrame.mot
datacolumns 4
datarows 94
range 0.51000000 1.44000000
endheader 
time	radius_imu_x	radius_imu_y	radius_imu_z	
          0.51000000	         -0.03686889	          1.79442856	         -0.21395738	
          0.52000000	         -0.13455998	          1.81412183	         -0.21297097	
          0.53000000	         -0.19466417	          1.82538122	         -0.20563307	
          0.54000000	         -0.22335828	          1.79071905	         -0.18037061	
          0.55000000	         -0.22743089	          1.69437769	         -0.13237912	
          0.56000000	         -0.21372359	          1.53907133	         -0.06275703	
          0.57000000	         -0.18856826	          1.33905981	          0.02338615	
          0.58000000	         -0.15692640	          1.11005258	          0.12005945	
          0.59000000	         -0.12197807	          0.86254496	          0.22269347	
          0.60000000	         -0.08517017	          0.59952803	          0.32916229	
          0.61000000	         -0.04666362	          0.31824712	          0.43951819	
          0.62000000	         -0.00621992	          0.01552425	          0.55458210	
          0.63000000	          0.03560873	         -0.30526712	          0.67391038	
          0.64000000	          0.07646408	         -0.62923143	          0.79410043	
          0.65000000	          0.11189529	         -0.93022555	          0.90836081	
          0.66000000	          0.13606086	         -1.17700803	          1.00769384	
          0.67000000	          0.14319137	         -1.34272843	          1.08324442	
          0.68000000	          0.12919427	         -1.41341437	          1.12880228	
          0.69000000	          0.09273359	         -1.39178270	          1.14241597	
          0.70000000	          0.03541557	         -1.29530170	          1.12657071	
          0.71000000	         -0.03886118	         -1.15019149	          1.08708196	
          0.72000000	         -0.12502525	         -0.98436128	          1.03135294	
          0.73000000	         -0.21797833	         -0.82182588	          0.96671985	
          0.74000000	         -0.31343009	         -0.67979911	          0.89935722	
          0.75000000	         -0.40827733	         -0.56837685	          0.83386655	
          0.76000000	         -0.50057339	         -0.49192449	          0.77339352	
          0.77000000	         -0.58924336	         -0.45110945	          0.71999840	
          0.78000000	         -0.67370000	         -0.44484702	          0.67504855	
          0.79000000	         -0.75346227	         -0.47184779	          0.63952108	
          0.80000000	         -0.82785433	         -0.53162149	          0.61418004	
          0.81000000	         -0.89586902	         -0.62477683	          0.59962117	
          0.82000000	         -0.95626166	         -0.75251827	          0.59620831	
          0.83000000	         -1.00789395	         -0.91541551	          0.60393040	
          0.84000000	         -1.05026113	         -1.11180654	          0.62220646	
          0.85000000	         -1.08396238	         -1.33661677	          0.64975709	
          0.86000000	         -1.11069209	         -1.58162668	          0.68478467	
          0.87000000	         -1.13247501	         -1.83757536	          0.72558302	
          0.88000000	         -1.15024967	         -2.09747249	          0.77143367	
          0.89000000	         -1.16235249	         -2.35963146	          0.82339476	
          0.90000000	         -1.16360063	         -2.62895733	          0.88459038	
          0.91000000	         -1.14545197	         -2.91580683	          0.95979727	
          0.92000000	         -1.09725107	         -3.23286855	          1.05445822	
          0.93000000	         -1.00834105	         -3.59097830	          1.17331214	
          0.94000000	         -0.87073983	         -3.99481576	          1.31883360	
          0.95000000	         -0.68200602	         -4.43928450	          1.48973534	
          0.96000000	         -0.44792412	         -4.90709114	          1.67973026	
          0.97000000	         -0.18439051	         -5.36826603	          1.87691076	
          0.98000000	          0.08231269	         -5.78244368	          2.06414427	
          0.99000000	          0.31787102	         -6.10465825	          2.22097136	
          1.00000000	          0.48547777	         -6.29455503	          2.32739788	
          1.01000000	          0.55370371	         -6.32643021	          2.36820990	
          1.02000000	          0.50436242	         -6.19702677	          2.33721337	
          1.03000000	          0.33658192	         -5.92710650	          2.23944865	
          1.04000000	          0.06807375	         -5.55644475	          2.08802278	
          1.05000000	         -0.27024974	         -5.13483316	          1.90296835	
          1.06000000	         -0.63687917	         -4.71657021	          1.70803704	
          1.07000000	         -0.98676468	         -4.35176090	          1.52725163	
          1.08000000	         -1.27706789	         -4.08055649	          1.38218784	
          1.09000000	         -1.47509920	         -3.92631220	          1.28746899	
          1.10000000	         -1.56465092	         -3.89209924	          1.24838160	
          1.11000000	         -1.54988177	         -3.96037725	          1.25966894	
          1.12000000	         -1.45471369	         -4.09771040	          1.30747220	
          1.13000000	         -1.31541764	         -4.26388506	          1.37333432	
          1.14000000	         -1.17230399	         -4.42048644	          1.43908044	
          1.15000000	         -1.05827150	         -4.53990546	          1.49074793	
          1.16000000	         -0.99167036	         -4.60844047	          1.51971561	
          1.17000000	         -0.97291964	         -4.62740296	          1.52530111	
          1.18000000	         -0.98512634	         -4.61097174	          1.51546762	
          1.19000000	         -1.00060745	         -4.57897436	          1.50237602	
          1.20000000	         -0.99007565	         -4.54952830	          1.49770977	
          1.21000000	         -0.93300783	         -4.53282168	          1.50889495	
          1.22000000	         -0.82576530	         -4.52773627	          1.53657328	
          1.23000000	         -0.68394013	         -4.52268774	          1.57438863	
          1.24000000	         -0.53685960	         -4.50072317	          1.61148769	
          1.25000000	         -0.41567940	         -4.44690655	          1.63694571	
          1.26000000	         -0.34101043	         -4.35424065	          1.64393040	
          1.27000000	         -0.31720288	         -4.22494074	          1.63130990	
          1.28000000	         -0.33598663	         -4.06698922	          1.60212025	
          1.29000000	         -0.38610819	         -3.88875533	          1.56027893	
          1.30000000	         -0.46232609	         -3.69509909	          1.50776903	
          1.31000000	         -0.56822627	         -3.48687053	          1.44392773	
          1.32000000	         -0.71216899	         -3.26317312	          1.36683958	
          1.33000000	         -0.89989850	         -3.02431307	          1.27560329	
          1.34000000	         -1.12782291	         -2.77377953	          1.17224493	
          1.35000000	         -1.37970869	         -2.51855958	          1.06251653	
          1.36000000	         -1.62811532	         -2.26783970	          0.95526816	
          1.37000000	         -1.84026080	         -2.03070365	          0.86057288	
          1.38000000	         -1.98690312	         -1.81361011	          0.78711444	
          1.39000000	         -2.05247254	         -1.61829426	          0.73936268	
          1.40000000	         -2.04274255	         -1.44099112	          0.71592784	
          1.41000000	         -1.98864432	         -1.27287124	          0.70523693	
          1.42000000	         -1.92459428	         -1.10589732	          0.70905475	
          1.43000000	         -1.89119500	         -0.93170590	          0.69531179	
          1.44000000	         -1.90183546	         -0.75056202	          0.67565265	
